<?xml version="1.0" encoding="utf-8"?>
<!DOCTYPE svg PUBLIC "-//W3C//DTD SVG 1.1//EN" "http://www.w3.org/Graphics/SVG/1.1/DTD/svg11.dtd">
<svg version="1.1"
	 id="svg2408" xmlns:inkscape="http://www.inkscape.org/namespaces/inkscape" xmlns:rdf="http://www.w3.org/1999/02/22-rdf-syntax-ns#" xmlns:cc="http://creativecommons.org/ns#" xmlns:dc="http://purl.org/dc/elements/1.1/" xmlns:svg="http://www.w3.org/2000/svg"
	 xmlns="http://www.w3.org/2000/svg" xmlns:xlink="http://www.w3.org/1999/xlink" x="0px" y="0px" width="800.074px"
	 height="678.559px" viewBox="0 0 800.074 678.559" enable-background="new 0 0 800.074 678.559" xml:space="preserve">
<filter  id="filter3174" color-interpolation-filters="sRGB">
	<feGaussianBlur  stdDeviation="1.71" id="feGaussianBlur3176"></feGaussianBlur>
</filter>
<g id="layer2" display="none">
	<g id="rect3745" display="inline" opacity="0.9" filter="url(#filter3174)" enable-background="new    ">
		
			<linearGradient id="SVGID_1_" gradientUnits="userSpaceOnUse" x1="224.7705" y1="521.9072" x2="224.7705" y2="436.4111" gradientTransform="matrix(1.0059 0 0 0.9942 -178.0977 -426.8787)">
			<stop  offset="0" style="stop-color:#000000"/>
			<stop  offset="1" style="stop-color:#000000;stop-opacity:0.5882"/>
		</linearGradient>
		<path fill="url(#SVGID_1_)" d="M11,7h74c3.313,0,6,2.687,6,6v73c0,3.313-2.687,6-6,6H11c-3.313,0-6-2.687-6-6V13
			C5,9.687,7.687,7,11,7z"/>
	</g>
</g>
<g>
	<path id="path3673" inkscape:connector-curvature="0" fill="#333333" d="M613.831,425.709c-16.68-22.826-34.57-41.396-34.57-83.871
		V200.837c0-59.759,4.33-114.619-40.186-155.732c-35.041-33.34-93.25-45.104-137.768-45.104c-87.066,0-184.192,32.13-204.56,138.599
		c-2.156,11.309,6.146,17.229,13.672,18.893l88.655,9.493c8.302-0.417,14.297-8.491,15.904-16.623
		c7.602-36.688,38.654-54.313,73.545-54.313c18.817,0,40.187,6.808,51.324,23.507c12.821,18.589,11.101,44.138,11.101,65.602v11.819
		c-53.025,5.863-122.39,9.759-172.051,31.298c-57.281,24.546-97.505,74.491-97.505,147.903c0,94.082,59.854,141.113,136.916,141.113
		c65.035,0,100.626-15.186,150.796-65.789c16.643,23.863,22.089,35.361,52.441,60.344c6.807,3.594,15.582,3.252,21.613-2.154
		l0.021-0.02l0.207,0.227c18.268-16.074,51.438-44.592,70.141-60.098C620.997,443.73,619.672,433.916,613.831,425.709z
		 M433.834,385.051c-14.521,25.529-37.651,41.148-63.352,41.148c-35.042,0-55.618-26.475-55.618-65.641
		c0-77.1,69.933-91.094,136.065-91.094V289h0.02C450.95,324.269,451.801,353.637,433.834,385.051z"/>
	<g id="g3717" transform="matrix(4.0940394,0,0,4.0940394,105.99043,-56.114346)">
		<path id="path3719" inkscape:connector-curvature="0" fill="#FF9201" d="M150.751,155.27
			c-21.39,15.782-52.41,24.179-79.125,24.179c-37.427,0-71.14-13.834-96.65-36.865c-2.001-1.811-0.215-4.284,2.189-2.878
			c27.527,16.018,61.562,25.66,96.714,25.66c23.716,0,49.781-4.917,73.764-15.096C151.261,148.74,154.293,152.66,150.751,155.27
			L150.751,155.27z"/>
		<path id="path3721" inkscape:connector-curvature="0" fill="#FF9201" d="M159.652,145.104c-2.734-3.499-18.091-1.658-24.978-0.826
			c-2.095,0.243-2.417-1.575-0.535-2.909c12.246-8.601,32.313-6.112,34.647-3.237c2.352,2.915-0.614,23.03-12.093,32.626
			c-1.766,1.481-3.443,0.701-2.663-1.253C156.612,163.048,162.396,148.609,159.652,145.104z"/>
	</g>
</g>
</svg>
