<?xml version="1.0" encoding="utf-8"?>
<!-- Generator: Adobe Illustrator 16.0.0, SVG Export Plug-In . SVG Version: 6.00 Build 0)  -->
<!DOCTYPE svg PUBLIC "-//W3C//DTD SVG 1.1//EN" "http://www.w3.org/Graphics/SVG/1.1/DTD/svg11.dtd">
<svg version="1.1" id="Layer_1" xmlns="http://www.w3.org/2000/svg" xmlns:xlink="http://www.w3.org/1999/xlink" x="0px" y="0px"
	 width="57.519px" height="62.385px" viewBox="0 95.437 57.519 62.385" enable-background="new 0 95.437 57.519 62.385"
	 xml:space="preserve">
<title>Ripple_logo_RGB</title>
<linearGradient id="SVGID_1_" gradientUnits="userSpaceOnUse" x1="689.6934" y1="-728.522" x2="837.1927" y2="-876.0212" gradientTransform="matrix(0.2931 0 0 -0.2931 -185.9559 -108.547)">
	<stop  offset="0" style="stop-color:#00AAE4"/>
	<stop  offset="1" style="stop-color:#006097"/>
</linearGradient>
<path fill="url(#SVGID_1_)" d="M51.002,133.51c-2.206-1.273-4.689-1.643-7.15-1.729c-2.064-0.072-5.144-1.396-5.144-5.15
	c0-2.798,2.268-5.049,5.145-5.15c2.46-0.086,4.944-0.456,7.149-1.729c6.231-3.598,8.367-11.567,4.769-17.798
	c-3.598-6.232-11.566-8.367-17.798-4.77c-4.032,2.328-6.515,6.629-6.515,11.285c0,2.524,0.897,4.847,2.043,7.002
	c0.963,1.812,1.451,5.176-1.854,7.083c-2.458,1.419-5.526,0.521-7.059-1.932c-1.294-2.071-2.857-4.012-5.045-5.275
	c-6.231-3.598-14.2-1.463-17.798,4.769c-3.598,6.231-1.463,14.2,4.769,17.798c4.031,2.328,8.998,2.328,13.029,0
	c2.188-1.263,3.75-3.202,5.043-5.272c1.062-1.7,3.715-3.866,7.06-1.935c2.455,1.418,3.213,4.525,1.853,7.085
	c-1.146,2.154-2.042,4.478-2.042,7.001c0,7.195,5.833,13.029,13.029,13.029s13.029-5.834,13.029-13.029
	C57.516,140.138,55.033,135.837,51.002,133.51z"/>
</svg>
