<?xml version="1.0" standalone="no"?>
<!DOCTYPE svg PUBLIC "-//W3C//DTD SVG 20010904//EN"
 "http://www.w3.org/TR/2001/REC-SVG-20010904/DTD/svg10.dtd">
<svg version="1.0" xmlns="http://www.w3.org/2000/svg"
 width="260.000000pt" height="260.000000pt" viewBox="0 0 260.000000 260.000000"
 preserveAspectRatio="xMidYMid meet">
<metadata>
Created by potrace 1.11, written by Peter Selinger 2001-2013
</metadata>
<g transform="translate(0.000000,260.000000) scale(0.100000,-0.100000)"
fill="#000000" stroke="none">
<path d="M1188 2589 c-77 -11 -187 -50 -256 -91 -74 -43 -734 -694 -803 -792
-156 -220 -167 -535 -27 -774 45 -77 707 -746 798 -807 64 -42 158 -86 214
-99 191 -46 414 -11 572 89 80 50 749 719 799 799 100 158 135 381 89 572 -13
56 -57 150 -99 214 -61 91 -730 753 -807 798 -141 83 -314 116 -480 91z m380
-637 c-6 -13 -150 -276 -185 -335 -18 -32 -33 -60 -33 -63 0 -3 63 -4 140 -2
77 2 140 1 140 0 0 -2 -64 -81 -142 -175 -77 -95 -146 -178 -151 -185 -8 -11
16 -13 131 -10 91 2 142 -1 141 -7 -1 -5 -33 -39 -73 -75 -39 -36 -169 -156
-289 -268 -119 -112 -217 -199 -217 -194 0 5 19 45 43 88 24 44 74 136 111
206 l67 127 -139 3 -139 3 144 175 143 175 -135 3 c-74 1 -135 6 -134 10 0 4
74 74 164 156 90 83 217 200 282 262 105 101 142 130 131 106z"/>
</g>
</svg>
