<?xml version="1.0" encoding="utf-8"?>
<!DOCTYPE svg PUBLIC "-//W3C//DTD SVG 1.1//EN" "http://www.w3.org/Graphics/SVG/1.1/DTD/svg11.dtd">
<svg version="1.1" id="Layer_1" xmlns="http://www.w3.org/2000/svg" xmlns:xlink="http://www.w3.org/1999/xlink" x="0px" y="0px"
	 width="136.461px" height="162.005px" viewBox="0 0 136.461 162.005" enable-background="new 0 0 136.461 162.005"
	 xml:space="preserve">
<path d="M133.6,126.251c-2.449,5.66-5.35,10.87-8.709,15.66c-4.58,6.529-8.33,11.05-11.221,13.561
	c-4.48,4.119-9.279,6.229-14.42,6.35c-3.689,0-8.141-1.051-13.32-3.18c-5.197-2.121-9.973-3.17-14.34-3.17
	c-4.58,0-9.491,1.049-14.746,3.17c-5.262,2.129-9.501,3.239-12.742,3.35c-4.929,0.21-9.842-1.96-14.746-6.52
	c-3.13-2.73-7.045-7.41-11.735-14.041c-5.032-7.08-9.169-15.289-12.41-24.649C1.74,106.671,0,96.881,0,87.403
	c0-10.857,2.346-20.221,7.045-28.068C10.738,53.032,15.651,48.06,21.8,44.41c6.149-3.65,12.793-5.51,19.948-5.629
	c3.915,0,9.049,1.211,15.429,3.591c6.362,2.388,10.447,3.599,12.239,3.599c1.338,0,5.877-1.416,13.569-4.239
	c7.275-2.618,13.416-3.702,18.445-3.275c13.631,1.1,23.871,6.473,30.68,16.153c-12.189,7.386-18.219,17.731-18.1,31.002
	c0.111,10.337,3.861,18.938,11.23,25.769c3.34,3.17,7.07,5.62,11.221,7.36C135.561,121.351,134.609,123.851,133.6,126.251
	L133.6,126.251z M102.34,3.241c0,8.102-2.959,15.667-8.859,22.669c-7.121,8.324-15.733,13.134-25.071,12.375
	c-0.119-0.972-0.188-1.995-0.188-3.07c0-7.778,3.386-16.102,9.399-22.908c3.002-3.446,6.819-6.312,11.45-8.597
	c4.619-2.251,8.99-3.497,13.1-3.71C102.291,1.083,102.34,2.166,102.34,3.241L102.34,3.241z"/>
</svg>
