<?xml version="1.0" encoding="utf-8"?>
<!-- Generator: Adobe Illustrator 16.0.0, SVG Export Plug-In . SVG Version: 6.00 Build 0)  -->
<!DOCTYPE svg PUBLIC "-//W3C//DTD SVG 1.1//EN" "http://www.w3.org/Graphics/SVG/1.1/DTD/svg11.dtd">
<svg version="1.1" id="Layer_1" xmlns="http://www.w3.org/2000/svg" xmlns:xlink="http://www.w3.org/1999/xlink" x="0px" y="0px"
	 width="567.246px" height="576px" viewBox="0 0 567.246 576" enable-background="new 0 0 567.246 576" xml:space="preserve">
<polygon points="286.713,76.129 225.849,90.215 205.558,120.647 225.849,151.08 286.713,166.422 266.422,140.934 235.989,140.934 
	225.849,120.647 235.989,100.356 266.422,100.356 "/>
<polygon points="316.361,85.588 338.205,112.729 368.846,113.954 398.339,94.226 360.912,71.212 "/>
<path d="M567.246,133.542l-11.32-56.596L513.328,53.28l-59.273-32.93L363.503-2.285H250.312l-79.228,56.596L0,576l36.982-60.573
	c40.059-55.361,114.322-134.243,230.257-171.003c-52.47,7.948-109.293,30.793-151.882,50.941
	c43.27-47.977,107.535-100.639,196.073-128.71c-68.862,10.428-145.236,46.497-187.034,68.491l71.028-263.878l64.4-42.934
	l94.815-9.451l88.683,17.633l55.835,32.296l-11.849,29.625l54.255,13.561l8.062,29.553c0,0-12.771,34.752-45.485,67.467
	c-32.714,32.715-94.301,39.585-94.301,39.585l-2.743,95.851l32.807-26.81c0,0-5.588-18.916-13.52-45.761
	C552.931,223.463,567.246,133.542,567.246,133.542"/>
</svg>
