<?xml version="1.0" encoding="utf-8"?>
<!-- Generator: Adobe Illustrator 16.0.0, SVG Export Plug-In . SVG Version: 6.00 Build 0)  -->
<!DOCTYPE svg PUBLIC "-//W3C//DTD SVG 1.1//EN" "http://www.w3.org/Graphics/SVG/1.1/DTD/svg11.dtd">
<svg version="1.1" id="Layer_1" xmlns="http://www.w3.org/2000/svg" xmlns:xlink="http://www.w3.org/1999/xlink" x="0px" y="0px"
	 width="994px" height="255.021px" viewBox="0 0 994 255.021" enable-background="new 0 0 994 255.021" xml:space="preserve">
<g>
	
		<linearGradient id="SVGID_1_" gradientUnits="userSpaceOnUse" x1="1287.8047" y1="-845.843" x2="1508.873" y2="-845.843" gradientTransform="matrix(0.7071 0.7071 0.7071 -0.7071 -263.3453 -1459.3688)">
		<stop  offset="0" style="stop-color:#FF7A9B"/>
		<stop  offset="1" style="stop-color:#FFA798"/>
	</linearGradient>
	<path fill="url(#SVGID_1_)" d="M176.822,234.312c-27.225,27.224-71.771,27.224-98.994,0l-57.323-57.323
		c-27.224-27.224-27.224-71.771,0-98.995l57.323-57.323c27.224-27.224,71.77-27.224,98.994,0l57.322,57.323
		c27.225,27.224,27.225,71.771,0,98.995L176.822,234.312z"/>
</g>
<polygon fill="#FFFFFF" points="122.856,150.863 95.291,150.863 124.321,115.387 96.689,115.387 154.231,61.914 131.969,102.792 
	159.731,102.792 129.528,139.211 158.396,139.211 100.399,193.107 "/>
<rect x="292" y="76.506" fill="none" width="736" height="105"/>
<g enable-background="new    ">
	<path fill="#353D82" d="M297.045,120.868c0-6.438,1.138-12.479,3.415-18.118s5.424-10.5,9.444-14.582
		c4.019-4.08,8.9-7.3,14.643-9.658c5.742-2.358,11.936-3.538,18.58-3.538c11.033,0,20.795,2.994,29.285,8.982
		c1.477,1.148,2.215,2.44,2.215,3.876c0,1.067-0.411,2.215-1.23,3.445l-2.276,3.63c-1.026,1.641-2.276,2.461-3.753,2.461
		c-1.026,0-2.174-0.409-3.445-1.23c-6.44-4.184-13.146-6.275-20.118-6.275c-4.717,0-9.003,0.831-12.858,2.491
		c-3.856,1.662-7.024,3.907-9.505,6.737c-2.482,2.83-4.379,6.091-5.691,9.782c-1.313,3.691-1.969,7.608-1.969,11.751
		c0,4.225,0.677,8.244,2.03,12.059s3.281,7.209,5.783,10.183c2.501,2.974,5.68,5.343,9.536,7.105
		c3.855,1.764,8.121,2.646,12.797,2.646c7.383,0,14.683-2.604,21.902-7.813c1.312-0.943,2.522-1.415,3.63-1.415
		c1.394,0,2.625,0.76,3.691,2.276l2.522,3.445c0.902,1.19,1.354,2.338,1.354,3.445c0,1.354-0.698,2.625-2.092,3.814
		c-9.229,7.424-19.77,11.136-31.623,11.136c-9.188,0-17.319-2.062-24.394-6.183c-7.075-4.123-12.489-9.7-16.242-16.734
		S297.045,129.645,297.045,120.868z"/>
	<path fill="#353D82" d="M383.547,133.881c0-6.404,1.568-12.192,4.706-17.365s7.385-9.187,12.743-12.04
		c5.358-2.853,11.262-4.279,17.712-4.279c6.45,0,12.36,1.427,17.731,4.279c5.371,2.854,9.64,6.867,12.805,12.04
		s4.748,10.961,4.748,17.365c0,6.434-1.583,12.232-4.748,17.396s-7.423,9.158-12.773,11.985s-11.271,4.241-17.762,4.241
		s-12.395-1.414-17.712-4.241c-5.318-2.827-9.556-6.822-12.712-11.985C385.125,146.113,383.547,140.314,383.547,133.881z
		 M399.666,133.881c0,5.874,1.838,10.681,5.515,14.418c3.676,3.738,8.185,5.607,13.525,5.607c5.341,0,9.87-1.869,13.588-5.607
		c3.718-3.737,5.577-8.544,5.577-14.418c0-5.834-1.859-10.64-5.577-14.419c-3.719-3.779-8.247-5.669-13.588-5.669
		c-5.341,0-9.85,1.89-13.525,5.669C401.504,123.241,399.666,128.047,399.666,133.881z"/>
	<path fill="#353D82" d="M465.927,160.674v-53.648c0-3.527,1.723-5.291,5.168-5.291h4.922c1.682,0,2.983,0.461,3.907,1.385
		c0.922,0.922,1.384,2.225,1.384,3.906v6.029l-0.369,4.43h0.246c1.394-4.266,3.793-8.049,7.198-11.352
		c3.404-3.301,7.219-4.952,11.443-4.952c1.723,0,2.953,0.431,3.691,1.292s1.107,2.194,1.107,3.999v4.922
		c0,1.683-0.482,2.983-1.445,3.907c-0.965,0.922-2.287,1.384-3.969,1.384c-3.732,0-6.952,1.148-9.659,3.445
		c-2.707,2.298-4.676,5.168-5.906,8.613s-1.846,7.198-1.846,11.259v20.672c0,3.528-1.723,5.291-5.168,5.291h-5.537
		C467.649,165.965,465.927,164.202,465.927,160.674z"/>
	<path fill="#353D82" d="M507.271,133.849c0-9.926,3.024-18.016,9.074-24.271c6.05-6.254,13.895-9.382,23.533-9.382
		c8.899,0,15.873,2.841,20.918,8.521c5.045,5.682,7.567,13.054,7.567,22.118c0,1.437-0.544,2.697-1.63,3.784
		c-1.088,1.087-2.391,1.63-3.907,1.63h-39.19c0.492,5.598,2.553,9.939,6.184,13.026c3.629,3.088,7.987,4.631,13.073,4.631
		c4.881,0,9.495-1.391,13.843-4.173c1.147-0.581,2.193-0.872,3.138-0.872c1.64,0,2.953,0.861,3.938,2.584l1.538,2.522
		c0.574,1.107,0.861,2.133,0.861,3.076c0,1.6-0.883,2.933-2.646,3.999c-6.809,4.307-14.068,6.46-21.779,6.46
		c-6.891,0-12.992-1.538-18.304-4.614s-9.342-7.157-12.089-12.243C508.645,145.56,507.271,139.962,507.271,133.849z
		 M524.005,126.528h28.485c-0.123-4.389-1.384-7.854-3.784-10.397c-2.398-2.543-5.466-3.814-9.197-3.814
		c-4.061,0-7.466,1.282-10.213,3.846C526.548,118.725,524.783,122.181,524.005,126.528z"/>
	<path fill="#353D82" d="M605.523,159.935l27.932-79.119c0.984-2.87,2.974-4.307,5.968-4.307h8.06c3.076,0,5.045,1.437,5.906,4.307
		l27.993,79.119c0.286,0.779,0.431,1.518,0.431,2.215c0,0.821-0.226,1.538-0.677,2.153c-0.779,1.107-2.133,1.661-4.061,1.661h-5.783
		c-3.076,0-5.045-1.436-5.906-4.307l-6.337-18.642h-31.377l-6.152,18.519c-0.861,2.953-2.83,4.43-5.906,4.43h-5.845
		c-1.969,0-3.322-0.532-4.061-1.6c-0.41-0.615-0.615-1.332-0.615-2.153C605.093,161.514,605.236,160.757,605.523,159.935z
		 M631.732,129.789h23.317l-7.937-23.933c-0.452-1.477-0.975-3.373-1.569-5.69s-1.076-4.255-1.445-5.814l-0.554-2.338h-0.246
		c-1.313,5.866-2.482,10.48-3.507,13.843L631.732,129.789z"/>
	<path fill="#353D82" d="M687.534,133.758c0-10.104,2.707-18.223,8.121-24.358c5.414-6.135,12.406-9.203,20.979-9.203
		c2.624,0,5.065,0.315,7.321,0.945c2.255,0.63,4.061,1.382,5.414,2.256s2.512,1.758,3.477,2.652c0.963,0.894,1.63,1.646,1.999,2.255
		l0.554,0.976h0.246c-0.164-1.062-0.246-2.271-0.246-3.62V81.787c0-3.519,1.723-5.277,5.168-5.277h5.537
		c3.445,0,5.168,1.764,5.168,5.291v78.873c0,3.528-1.723,5.291-5.168,5.291h-4.676c-3.445,0-5.168-1.607-5.168-4.824v-2.534
		l0.246-2.288h-0.246c-0.164,0.288-0.391,0.69-0.677,1.205c-0.287,0.516-1.015,1.412-2.185,2.689
		c-1.168,1.276-2.451,2.409-3.845,3.397c-1.395,0.988-3.302,1.885-5.722,2.688c-2.421,0.803-5.005,1.204-7.752,1.204
		c-8.654,0-15.576-3.105-20.764-9.315C690.128,151.977,687.534,143.834,687.534,133.758z M703.653,133.758
		c0,6.079,1.477,10.957,4.43,14.634s6.808,5.515,11.566,5.515c4.553,0,8.377-1.704,11.475-5.114
		c3.096-3.408,4.645-8.461,4.645-15.157c0-5.422-1.395-10.085-4.184-13.987c-2.79-3.903-6.728-5.854-11.812-5.854
		c-4.553,0-8.378,1.787-11.475,5.361S703.653,127.595,703.653,133.758z"/>
	<path fill="#353D82" d="M767.207,160.674v-53.648c0-3.527,1.723-5.291,5.168-5.291h4.922c3.445,0,5.168,1.764,5.168,5.291v3.876
		l-0.246,2.892h0.246c1.805-3.568,4.593-6.727,8.367-9.475c3.773-2.747,7.998-4.122,12.674-4.122
		c9.859,0,16.149,4.409,18.872,13.228h0.248c1.802-3.608,4.698-6.716,8.691-9.32c3.992-2.604,8.385-3.907,13.176-3.907
		c14.101,0,21.151,8.143,21.151,24.425v36.053c0,3.528-1.777,5.291-5.331,5.291h-5.457c-3.555,0-5.331-1.763-5.331-5.291v-33.038
		c0-2.009-0.112-3.722-0.338-5.138c-0.225-1.414-0.645-2.737-1.258-3.968c-0.614-1.23-1.515-2.153-2.701-2.769
		s-2.681-0.923-4.479-0.923c-3.437,0-6.424,1.098-8.961,3.292c-2.536,2.194-4.398,4.942-5.585,8.244s-1.779,6.881-1.779,10.735
		v23.563c0,3.528-1.736,5.291-5.207,5.291h-5.581c-3.555,0-5.331-1.763-5.331-5.291v-33.038c0-1.559-0.052-2.901-0.153-4.03
		c-0.104-1.127-0.339-2.275-0.708-3.445c-0.369-1.168-0.852-2.122-1.446-2.86s-1.425-1.332-2.491-1.784
		c-1.067-0.451-2.338-0.677-3.814-0.677c-2.707,0-5.147,0.656-7.321,1.969c-2.175,1.313-3.917,3.046-5.229,5.198
		c-1.313,2.154-2.317,4.522-3.015,7.106c-0.698,2.584-1.046,5.251-1.046,7.998v23.563c0,3.528-1.723,5.291-5.168,5.291h-5.537
		C768.93,165.965,767.207,164.202,767.207,160.674z"/>
	<path fill="#353D82" d="M880.349,85.553v-3.753c0-3.527,1.723-5.291,5.168-5.291h5.537c1.682,0,2.983,0.461,3.907,1.385
		c0.922,0.922,1.384,2.225,1.384,3.906v3.753c0,3.445-1.764,5.168-5.291,5.168h-5.537C882.071,90.721,880.349,88.999,880.349,85.553
		z M880.349,160.674v-53.648c0-3.527,1.723-5.291,5.168-5.291h5.537c3.445,0,5.168,1.764,5.168,5.291v53.648
		c0,3.528-1.723,5.291-5.168,5.291h-5.537C882.071,165.965,880.349,164.202,880.349,160.674z"/>
	<path fill="#353D82" d="M912.095,160.674v-53.648c0-3.527,1.723-5.291,5.168-5.291h4.922c3.445,0,5.168,1.764,5.168,5.291v3.876
		l-0.246,2.892h0.246c0.615-1.189,1.343-2.358,2.185-3.507c0.84-1.147,1.947-2.348,3.322-3.599c1.373-1.251,2.86-2.338,4.46-3.262
		c1.6-0.922,3.517-1.691,5.753-2.307c2.234-0.615,4.604-0.923,7.105-0.923c15.012,0,22.518,8.143,22.518,24.425v36.053
		c0,3.528-1.777,5.291-5.331,5.291h-5.457c-3.555,0-5.331-1.763-5.331-5.291v-32.73c0-4.266-0.738-7.516-2.215-9.752
		c-1.477-2.234-4.102-3.353-7.875-3.353c-5.537,0-10.008,2.021-13.412,6.06c-3.405,4.041-5.106,9.035-5.106,14.981v24.794
		c0,3.528-1.723,5.291-5.168,5.291h-5.537C913.817,165.965,912.095,164.202,912.095,160.674z"/>
</g>
</svg>
