<?xml version="1.0" encoding="utf-8"?>
<!DOCTYPE svg PUBLIC "-//W3C//DTD SVG 1.1//EN" "http://www.w3.org/Graphics/SVG/1.1/DTD/svg11.dtd">
<svg version="1.1" id="Layer_1" xmlns="http://www.w3.org/2000/svg" xmlns:xlink="http://www.w3.org/1999/xlink" x="0px" y="0px"
	 width="994px" height="255.021px" viewBox="0 0 994 255.021" enable-background="new 0 0 994 255.021" xml:space="preserve">
<g>
	
		<linearGradient id="SVGID_1_" gradientUnits="userSpaceOnUse" x1="864.2168" y1="776.9412" x2="1085.2852" y2="776.9412" gradientTransform="matrix(0.7071 0.7071 -0.7071 0.7071 -12.5468 -1111.1307)">
		<stop  offset="0" style="stop-color:#FF7A9B"/>
		<stop  offset="1" style="stop-color:#FFA798"/>
	</linearGradient>
	<path fill="url(#SVGID_1_)" d="M176.822,234.312c-27.225,27.224-71.771,27.224-98.994,0l-57.323-57.323
		c-27.224-27.224-27.224-71.771,0-98.995l57.323-57.323c27.224-27.224,71.77-27.224,98.994,0l57.322,57.323
		c27.225,27.224,27.225,71.771,0,98.995L176.822,234.312z"/>
</g>
<polygon fill="#FFFFFF" points="122.856,150.863 95.291,150.863 124.321,115.387 96.689,115.387 154.231,61.914 131.969,102.792 
	159.731,102.792 129.528,139.211 158.396,139.211 100.399,193.107 "/>
<rect x="292" y="76.506" fill="none" width="736" height="105"/>
<text transform="matrix(1 0 0 1 292 165.9646)" fill="#353D82" font-family="'MuseoSansRounded-700'" font-size="126">Core Admin</text>
</svg>
